<?xml version="1.0" encoding="utf-8"?>
<!-- Generator: Adobe Illustrator 27.5.0, SVG Export Plug-In . SVG Version: 6.00 Build 0)  -->
<svg version="1.1" xmlns="http://www.w3.org/2000/svg" xmlns:xlink="http://www.w3.org/1999/xlink" x="0px" y="0px"
	 viewBox="0 0 500 500" style="enable-background:new 0 0 500 500;" xml:space="preserve">
<g id="Background_Complete">
	<g>
		<rect y="382.398" style="fill:#EBEBEB;" width="500" height="0.25"/>
		<rect x="416.779" y="398.494" style="fill:#EBEBEB;" width="33.122" height="0.25"/>
		<rect x="322.527" y="401.208" style="fill:#EBEBEB;" width="8.693" height="0.25"/>
		<rect x="396.586" y="389.208" style="fill:#EBEBEB;" width="19.192" height="0.25"/>
		<rect x="52.459" y="390.888" style="fill:#EBEBEB;" width="43.193" height="0.25"/>
		<rect x="104.556" y="390.888" style="fill:#EBEBEB;" width="6.333" height="0.25"/>
		<rect x="131.471" y="395.111" style="fill:#EBEBEB;" width="93.676" height="0.25"/>
		<path style="fill:#EBEBEB;" d="M237.014,337.8H43.915c-3.147,0-5.708-2.561-5.708-5.708V60.66c0-3.147,2.561-5.708,5.708-5.708
			h193.099c3.146,0,5.707,2.561,5.707,5.708v271.432C242.721,335.239,240.16,337.8,237.014,337.8z M43.915,55.203
			c-3.01,0-5.458,2.448-5.458,5.458v271.432c0,3.01,2.448,5.458,5.458,5.458h193.099c3.009,0,5.457-2.448,5.457-5.458V60.66
			c0-3.009-2.448-5.458-5.457-5.458H43.915z"/>
		<path style="fill:#EBEBEB;" d="M453.31,337.8H260.212c-3.147,0-5.707-2.561-5.707-5.708V60.66c0-3.147,2.561-5.708,5.707-5.708
			H453.31c3.148,0,5.708,2.561,5.708,5.708v271.432C459.019,335.239,456.458,337.8,453.31,337.8z M260.212,55.203
			c-3.009,0-5.457,2.448-5.457,5.458v271.432c0,3.01,2.448,5.458,5.457,5.458H453.31c3.01,0,5.458-2.448,5.458-5.458V60.66
			c0-3.009-2.448-5.458-5.458-5.458H260.212z"/>
	</g>
	<g>
		<path style="fill:#E0E0E0;" d="M253.209,157.815c-1.576-7.602-4.588-14.67-8.708-20.947l7.501-9.06l-16.035-16.036l-9.06,7.5
			c-6.277-4.118-13.345-7.132-20.946-8.707l-1.1-11.677h-22.678l-1.1,11.677c-7.601,1.576-14.67,4.589-20.946,8.707l-9.06-7.5
			l-16.036,16.036l7.5,9.06c-4.119,6.276-7.132,13.344-8.708,20.946l-11.677,1.101v22.676l11.677,1.101
			c1.577,7.601,4.589,14.668,8.708,20.945l-7.5,9.06l16.036,16.036l9.06-7.501c6.276,4.121,13.345,7.132,20.946,8.709l1.1,11.678
			h22.678l1.1-11.676c7.601-1.576,14.669-4.589,20.946-8.71l9.06,7.501l16.035-16.036l-7.501-9.059
			c4.12-6.278,7.132-13.345,8.708-20.946l11.677-1.101v-22.676L253.209,157.815z M224.22,170.254c0,16.954-13.745,30.7-30.7,30.7
			c-16.955,0-30.7-13.745-30.7-30.7c0-16.955,13.745-30.7,30.7-30.7C210.476,139.554,224.22,153.299,224.22,170.254z"/>
		<path style="fill:#E0E0E0;" d="M318.25,266.651l0.79,8.391h16.294l0.789-8.389c5.463-1.133,10.541-3.298,15.051-6.258l6.51,5.39
			l11.522-11.523l-5.389-6.509c2.961-4.51,5.124-9.589,6.258-15.05l8.388-0.79V215.62l-8.388-0.791
			c-1.133-5.463-3.297-10.541-6.258-15.049l5.389-6.51l-11.522-11.523l-6.51,5.389c-4.51-2.958-9.588-5.124-15.051-6.257
			l-0.789-8.387l-16.294-0.002l-0.79,8.39c-5.462,1.134-10.54,3.299-15.051,6.257l-6.509-5.389l-11.522,11.523l5.389,6.51
			c-2.96,4.51-5.124,9.587-6.257,15.049l-8.39,0.791v16.294l8.39,0.79c1.132,5.46,3.297,10.54,6.256,15.05l-5.389,6.509
			l11.522,11.523l6.509-5.39C307.71,263.355,312.788,265.52,318.25,266.651z M327.186,245.824c-12.181,0-22.057-9.876-22.057-22.058
			c0-12.182,9.876-22.057,22.057-22.057c12.183,0,22.058,9.875,22.058,22.057C349.244,235.948,339.369,245.824,327.186,245.824z"/>
		<path style="fill:#F0F0F0;" d="M110.511,346.924l0.403,4.279h8.31l0.402-4.278c2.786-0.578,5.376-1.682,7.676-3.191l3.32,2.749
			l5.876-5.876l-2.749-3.32c1.51-2.3,2.613-4.891,3.192-7.675l4.278-0.403v-8.31l-4.278-0.403c-0.578-2.786-1.682-5.376-3.192-7.675
			l2.749-3.32l-5.876-5.876l-3.32,2.748c-2.3-1.509-4.89-2.613-7.676-3.191l-0.402-4.277l-8.31-0.001l-0.403,4.279
			c-2.785,0.578-5.375,1.682-7.676,3.191l-3.319-2.748L93.64,309.5l2.748,3.32c-1.509,2.3-2.613,4.889-3.191,7.675l-4.279,0.403
			v8.31l4.279,0.403c0.577,2.785,1.681,5.375,3.191,7.675l-2.748,3.32l5.876,5.876l3.319-2.749
			C105.135,345.243,107.725,346.347,110.511,346.924z M115.068,336.302c-6.212,0-11.249-5.036-11.249-11.249
			c0-6.212,5.037-11.249,11.249-11.249c6.213,0,11.249,5.036,11.249,11.249C126.317,331.266,121.282,336.302,115.068,336.302z"/>
		<path style="fill:#F0F0F0;" d="M409.249,326.16l0.332,3.522h6.839l0.331-3.521c2.293-0.476,4.424-1.384,6.317-2.626l2.732,2.262
			l4.836-4.836l-2.262-2.732c1.243-1.893,2.151-4.025,2.627-6.317l3.521-0.332v-6.839L431,304.409
			c-0.475-2.293-1.384-4.424-2.627-6.317l2.262-2.732l-4.836-4.836l-2.732,2.262c-1.893-1.242-4.024-2.151-6.317-2.626l-0.331-3.52
			l-6.839-0.001l-0.332,3.522c-2.292,0.476-4.424,1.384-6.317,2.626l-2.732-2.262l-4.836,4.836l2.262,2.732
			c-1.242,1.893-2.151,4.024-2.626,6.317l-3.521,0.332v6.839l3.522,0.332c0.475,2.292,1.384,4.424,2.626,6.317l-2.262,2.732
			l4.836,4.836l2.732-2.262C404.825,324.776,406.957,325.685,409.249,326.16z M413,317.418c-5.113,0-9.258-4.145-9.258-9.258
			c0-5.113,4.145-9.258,9.258-9.258c5.113,0,9.258,4.145,9.258,9.258C422.258,313.273,418.113,317.418,413,317.418z"/>
		<path style="fill:#E0E0E0;" d="M231.725,380.751h19.4l0.94-9.988c6.503-1.348,12.548-3.927,17.917-7.45l7.75,6.416l13.717-13.716
			l-6.415-7.75c3.523-5.369,6.1-11.415,7.448-17.919l9.988-0.94v-19.399l-9.988-0.94c-1.349-6.503-3.926-12.549-7.448-17.918
			l6.415-7.75l-13.717-13.716l-7.75,6.415c-5.37-3.523-11.415-6.101-17.917-7.45l-0.94-9.988h-19.4l-0.94,9.988
			c-6.503,1.349-12.548,3.927-17.919,7.45l-7.749-6.415l-13.718,13.716l6.417,7.75c-3.524,5.37-6.102,11.415-7.45,17.918
			l-9.989,0.94v19.399l9.989,0.94c1.348,6.504,3.926,12.55,7.45,17.918l-6.417,7.752l13.718,13.716l7.749-6.416
			c5.371,3.523,11.416,6.102,17.919,7.45L231.725,380.751z M241.425,345.964c-14.504,0-26.261-11.757-26.261-26.261
			c0-14.502,11.757-26.26,26.261-26.26c14.504,0,26.261,11.758,26.261,26.26C267.686,334.208,255.929,345.964,241.425,345.964z"/>
		<path style="fill:#F0F0F0;" d="M340.16,345.256l-1.027-1.957c-3.345-6.372-11.251-8.836-17.624-5.49l-4.674,2.454
			c-6.375,3.346-8.838,11.253-5.493,17.625l1.027,1.957l-3.259,1.711l11.752,22.388l34.31-18.011l-11.752-22.388L340.16,345.256z
			 M333.014,362.385l2.05,3.906l-2.488,1.306l-2.05-3.905c-0.935-0.057-1.824-0.54-2.291-1.43c-0.711-1.354-0.189-3.029,1.164-3.739
			c1.355-0.711,3.029-0.19,3.74,1.164C333.607,360.576,333.498,361.583,333.014,362.385z M335.008,347.96l-17.487,9.18l-1.027-1.957
			c-1.854-3.532-0.487-7.914,3.046-9.768l4.674-2.454c3.532-1.854,7.913-0.49,9.767,3.042L335.008,347.96z"/>
		<path style="fill:#F0F0F0;" d="M100.313,226.354l0.725-2.088c2.361-6.799-1.25-14.251-8.049-16.612l-4.987-1.732
			c-6.802-2.362-14.254,1.25-16.615,8.048l-0.725,2.088l-3.477-1.207l-8.294,23.886l36.606,12.711l8.294-23.886L100.313,226.354z
			 M82.93,232.856l-1.447,4.167l-2.655-0.922l1.447-4.167c-0.598-0.721-0.853-1.7-0.523-2.649c0.502-1.445,2.08-2.209,3.524-1.708
			c1.446,0.502,2.21,2.08,1.709,3.525C84.655,232.051,83.846,232.661,82.93,232.856z M94.817,224.445l-18.657-6.478l0.725-2.088
			c1.309-3.768,5.441-5.768,9.209-4.46l4.987,1.732c3.768,1.309,5.77,5.438,4.461,9.206L94.817,224.445z"/>
		<path style="fill:#F0F0F0;" d="M427.928,214.667l-2.139-0.68c4.701-0.849,8.803-4.146,10.351-9.016
			c2.227-7.008-1.649-14.496-8.657-16.723c-7.009-2.228-14.497,1.648-16.724,8.657c-1.548,4.87-0.102,9.93,3.247,13.337
			l-2.138-0.679c-6.509-2.069-13.464,1.531-15.533,8.041l-2.14,6.734l39.632,12.596l2.14-6.734
			C438.035,223.69,434.437,216.736,427.928,214.667z"/>
		<path style="fill:#F0F0F0;" d="M284.189,93.902l-1.332,0.56c1.95-2.379,2.584-5.707,1.309-8.741
			c-1.834-4.365-6.86-6.417-11.225-4.583c-4.366,1.834-6.417,6.86-4.583,11.225c1.275,3.033,4.096,4.91,7.16,5.182l-1.332,0.559
			c-4.054,1.703-5.96,6.372-4.256,10.426l1.763,4.195l24.685-10.372l-1.762-4.195C292.91,94.105,288.243,92.199,284.189,93.902z"/>
		<path style="fill:#F0F0F0;" d="M105.5,122.02l-1.415-0.295c2.955-0.853,5.366-3.234,6.037-6.455
			c0.966-4.635-2.01-9.176-6.645-10.142c-4.636-0.966-9.177,2.009-10.142,6.644c-0.671,3.221,0.588,6.367,2.957,8.329l-1.414-0.295
			c-4.305-0.897-8.523,1.866-9.42,6.172l-0.928,4.454l26.212,5.461l0.928-4.454C112.567,127.134,109.805,122.917,105.5,122.02z"/>
	</g>
</g>
<g id="Background_Simple" style="display:none;">
	<g style="display:inline;">
		<path style="fill:#407BFF;" d="M245.438,110.807c-75.075,33.778-6.923,93.979-50.271,126.765
			c-43.348,32.786-161.206-5.117-116.277,80.022c52.775,100.007,283.883,86.12,333.713-36.546S320.512,77.03,245.438,110.807z"/>
		<path style="opacity:0.9;fill:#FFFFFF;" d="M245.438,110.807c-75.075,33.778-6.923,93.979-50.271,126.765
			c-43.348,32.786-161.206-5.117-116.277,80.022c52.775,100.007,283.883,86.12,333.713-36.546S320.512,77.03,245.438,110.807z"/>
	</g>
</g>
<g id="Shadow_1_">
	<ellipse id="_x3C_Path_x3E__359_" style="fill:#F5F5F5;" cx="250" cy="416.238" rx="193.889" ry="11.323"/>
</g>
<g id="Interface">
	<g>
		<path style="fill:#407BFF;" d="M369.182,367.73H190.263c-4.04,0-7.316-3.275-7.316-7.316V140.736c0-4.04,3.275-7.316,7.316-7.316
			h178.919c4.04,0,7.316,3.275,7.316,7.316v219.678C376.498,364.455,373.223,367.73,369.182,367.73z"/>
		<path style="opacity:0.6;fill:#FFFFFF;enable-background:new    ;" d="M369.182,367.73H190.263c-4.04,0-7.316-3.275-7.316-7.316
			V140.736c0-4.04,3.275-7.316,7.316-7.316h178.919c4.04,0,7.316,3.275,7.316,7.316v219.678
			C376.498,364.455,373.223,367.73,369.182,367.73z"/>
		<g>
			<rect x="214.304" y="277.77" style="fill:#FFFFFF;" width="130.837" height="22.403"/>
			<g style="opacity:0.4;">
				<path style="fill:#263238;" d="M220.896,288.528c0-1.881,1.43-3.266,3.365-3.266c0.936,0,1.779,0.313,2.348,0.936l-0.431,0.432
					c-0.523-0.532-1.165-0.762-1.898-0.762c-1.55,0-2.714,1.138-2.714,2.66c0,1.522,1.165,2.659,2.714,2.659
					c0.733,0,1.376-0.229,1.898-0.771l0.431,0.431c-0.568,0.624-1.412,0.945-2.357,0.945
					C222.326,291.793,220.896,290.408,220.896,288.528z"/>
				<path style="fill:#263238;" d="M227.224,289.326c0-1.431,1.045-2.449,2.457-2.449c1.413,0,2.449,1.018,2.449,2.449
					c0,1.43-1.036,2.457-2.449,2.457C228.27,291.783,227.224,290.756,227.224,289.326z M231.47,289.326
					c0-1.129-0.761-1.881-1.789-1.881c-1.027,0-1.797,0.752-1.797,1.881c0,1.128,0.771,1.88,1.797,1.88
					C230.709,291.206,231.47,290.454,231.47,289.326z"/>
				<path style="fill:#263238;" d="M237.898,288.94v2.797h-0.651v-2.732c0-1.019-0.532-1.541-1.449-1.541
					c-1.037,0-1.688,0.643-1.688,1.742v2.531h-0.651v-4.823h0.623v0.89c0.349-0.587,1-0.927,1.835-0.927
					C237.092,286.877,237.898,287.556,237.898,288.94z"/>
				<path style="fill:#263238;" d="M241.237,284.887c0.357,0,0.725,0.102,0.963,0.303l-0.22,0.486
					c-0.183-0.156-0.44-0.238-0.715-0.238c-0.559,0-0.853,0.311-0.853,0.908v0.568h1.485v0.55h-1.467v4.273h-0.651v-4.273h-0.862
					v-0.55h0.862v-0.597C239.779,285.456,240.292,284.887,241.237,284.887z M244.318,285.383c0,0.266-0.202,0.477-0.477,0.477
					c-0.266,0-0.477-0.211-0.477-0.468c0-0.248,0.211-0.459,0.477-0.459C244.107,284.933,244.318,285.135,244.318,285.383z
					 M243.512,286.914h0.651v4.823h-0.651V286.914z"/>
				<path style="fill:#263238;" d="M248.409,286.877v0.633c-0.055,0-0.11-0.009-0.156-0.009c-1.009,0-1.623,0.642-1.623,1.779v2.457
					h-0.651v-4.823h0.624v0.944C246.905,287.217,247.52,286.877,248.409,286.877z"/>
				<path style="fill:#263238;" d="M257.543,288.94v2.797h-0.651v-2.732c0-1.019-0.514-1.541-1.385-1.541
					c-0.99,0-1.614,0.643-1.614,1.742v2.531h-0.651v-2.732c0-1.019-0.514-1.541-1.394-1.541c-0.981,0-1.614,0.643-1.614,1.742v2.531
					h-0.651v-4.823h0.624v0.88c0.339-0.577,0.963-0.917,1.77-0.917c0.798,0,1.421,0.34,1.715,1.018
					c0.349-0.624,1.037-1.018,1.908-1.018C256.773,286.877,257.543,287.556,257.543,288.94z"/>
				<path style="fill:#263238;" d="M267.219,285.318v6.419h-0.559l-4.126-5.209v5.209h-0.679v-6.419h0.56l4.136,5.209v-5.209
					H267.219z"/>
				<path style="fill:#263238;" d="M273.373,289.527h-4.035c0.074,1.009,0.844,1.679,1.898,1.679c0.587,0,1.11-0.211,1.477-0.633
					l0.367,0.422c-0.431,0.513-1.101,0.788-1.861,0.788c-1.504,0-2.531-1.027-2.531-2.457c0-1.431,1-2.449,2.357-2.449
					c1.357,0,2.338,1,2.338,2.449C273.382,289.381,273.373,289.454,273.373,289.527z M269.337,289.041h3.421
					c-0.082-0.944-0.771-1.604-1.715-1.604C270.108,287.436,269.42,288.097,269.337,289.041z"/>
				<path style="fill:#263238;" d="M281.699,286.914l-1.825,4.823h-0.614l-1.523-3.952l-1.522,3.952h-0.614l-1.816-4.823h0.624
					l1.513,4.099l1.55-4.099h0.559l1.541,4.099l1.532-4.099H281.699z"/>
				<path style="fill:#263238;" d="M290.247,287.52c0,1.366-0.99,2.191-2.623,2.191H285.9v2.026h-0.679v-6.419h2.403
					C289.257,285.318,290.247,286.144,290.247,287.52z M289.568,287.52c0-1.027-0.678-1.614-1.962-1.614H285.9v3.21h1.706
					C288.89,289.115,289.568,288.528,289.568,287.52z"/>
				<path style="fill:#263238;" d="M295.172,288.748v2.989h-0.624v-0.752c-0.293,0.495-0.862,0.798-1.66,0.798
					c-1.091,0-1.761-0.568-1.761-1.403c0-0.742,0.477-1.366,1.862-1.366h1.531v-0.293c0-0.825-0.468-1.275-1.366-1.275
					c-0.624,0-1.21,0.221-1.605,0.569l-0.294-0.486c0.486-0.413,1.201-0.651,1.962-0.651
					C294.466,286.877,295.172,287.501,295.172,288.748z M294.521,290.289V289.5h-1.513c-0.936,0-1.238,0.367-1.238,0.862
					c0,0.559,0.449,0.907,1.22,0.907C293.723,291.27,294.264,290.921,294.521,290.289z"/>
				<path style="fill:#263238;" d="M296.273,291.188l0.294-0.514c0.385,0.303,1.037,0.541,1.715,0.541
					c0.918,0,1.294-0.312,1.294-0.789c0-1.256-3.127-0.266-3.127-2.173c0-0.789,0.679-1.376,1.908-1.376
					c0.623,0,1.302,0.175,1.705,0.449l-0.284,0.523c-0.422-0.294-0.926-0.413-1.421-0.413c-0.872,0-1.256,0.339-1.256,0.798
					c0,1.302,3.127,0.321,3.127,2.174c0,0.834-0.733,1.375-1.99,1.375C297.438,291.783,296.668,291.526,296.273,291.188z"/>
				<path style="fill:#263238;" d="M300.757,291.188l0.294-0.514c0.385,0.303,1.037,0.541,1.715,0.541
					c0.918,0,1.294-0.312,1.294-0.789c0-1.256-3.128-0.266-3.128-2.173c0-0.789,0.679-1.376,1.908-1.376
					c0.624,0,1.302,0.175,1.706,0.449l-0.284,0.523c-0.422-0.294-0.926-0.413-1.421-0.413c-0.872,0-1.256,0.339-1.256,0.798
					c0,1.302,3.127,0.321,3.127,2.174c0,0.834-0.733,1.375-1.99,1.375C301.922,291.783,301.152,291.526,300.757,291.188z"/>
				<path style="fill:#263238;" d="M312.899,286.914l-1.825,4.823h-0.614l-1.522-3.952l-1.522,3.952h-0.614l-1.816-4.823h0.623
					l1.513,4.099l1.55-4.099h0.56l1.541,4.099l1.532-4.099H312.899z"/>
				<path style="fill:#263238;" d="M313.258,289.326c0-1.431,1.045-2.449,2.457-2.449c1.413,0,2.449,1.018,2.449,2.449
					c0,1.43-1.036,2.457-2.449,2.457C314.303,291.783,313.258,290.756,313.258,289.326z M317.504,289.326
					c0-1.129-0.761-1.881-1.789-1.881c-1.027,0-1.797,0.752-1.797,1.881c0,1.128,0.771,1.88,1.797,1.88
					C316.743,291.206,317.504,290.454,317.504,289.326z"/>
				<path style="fill:#263238;" d="M321.924,286.877v0.633c-0.055,0-0.11-0.009-0.156-0.009c-1.009,0-1.623,0.642-1.623,1.779v2.457
					h-0.651v-4.823h0.624v0.944C320.42,287.217,321.035,286.877,321.924,286.877z"/>
				<path style="fill:#263238;" d="M327.455,284.933v6.805h-0.624v-0.953c-0.394,0.65-1.063,0.999-1.861,0.999
					c-1.376,0-2.403-0.999-2.403-2.457c0-1.459,1.027-2.449,2.403-2.449c0.77,0,1.431,0.33,1.834,0.954v-2.898H327.455z
					 M326.813,289.326c0-1.129-0.77-1.881-1.789-1.881c-1.027,0-1.797,0.752-1.797,1.881c0,1.128,0.77,1.88,1.797,1.88
					C326.043,291.206,326.813,290.454,326.813,289.326z"/>
			</g>
		</g>
		<rect x="214.304" y="321.605" style="opacity:0.2;" width="130.837" height="22.403"/>
		<g style="opacity:0.5;">
			<path d="M215.106,224.797v1.507h1.983v0.351h-1.983v1.627h-0.405v-3.835h2.629v0.351H215.106z"/>
			<path d="M217.699,226.841c0-0.855,0.624-1.463,1.468-1.463c0.843,0,1.462,0.608,1.462,1.463c0,0.854-0.619,1.468-1.462,1.468
				C218.324,228.309,217.699,227.695,217.699,226.841z M220.235,226.841c0-0.674-0.455-1.123-1.068-1.123
				c-0.614,0-1.074,0.449-1.074,1.123s0.46,1.123,1.074,1.123C219.781,227.964,220.235,227.515,220.235,226.841z"/>
			<path d="M222.878,225.378v0.378c-0.033,0-0.066-0.006-0.093-0.006c-0.603,0-0.97,0.384-0.97,1.064v1.468h-0.389v-2.882h0.372
				v0.564C221.98,225.581,222.347,225.378,222.878,225.378z"/>
			<path d="M226.221,225.399v2.531c0,0.991-0.487,1.44-1.44,1.44c-0.526,0-1.041-0.158-1.342-0.443l0.197-0.296
				c0.274,0.246,0.691,0.395,1.134,0.395c0.729,0,1.063-0.334,1.063-1.047v-0.366c-0.241,0.366-0.652,0.559-1.123,0.559
				c-0.822,0-1.446-0.575-1.446-1.402c0-0.827,0.624-1.392,1.446-1.392c0.482,0,0.898,0.197,1.139,0.575v-0.554H226.221z
				 M225.843,226.77c0-0.625-0.46-1.052-1.096-1.052c-0.635,0-1.09,0.427-1.09,1.052c0,0.624,0.455,1.057,1.09,1.057
				C225.383,227.826,225.843,227.394,225.843,226.77z"/>
			<path d="M227.023,226.841c0-0.855,0.624-1.463,1.468-1.463c0.843,0,1.462,0.608,1.462,1.463c0,0.854-0.619,1.468-1.462,1.468
				C227.648,228.309,227.023,227.695,227.023,226.841z M229.56,226.841c0-0.674-0.455-1.123-1.068-1.123
				c-0.614,0-1.074,0.449-1.074,1.123s0.46,1.123,1.074,1.123C229.105,227.964,229.56,227.515,229.56,226.841z"/>
			<path d="M232.268,228.105c-0.153,0.138-0.383,0.203-0.608,0.203c-0.542,0-0.844-0.307-0.844-0.838v-1.742h-0.515v-0.329h0.515
				v-0.63h0.389v0.63h0.876v0.329h-0.876v1.72c0,0.34,0.175,0.526,0.499,0.526c0.159,0,0.317-0.05,0.427-0.148L232.268,228.105z"/>
			<path d="M237.497,225.762c0,0.815-0.592,1.309-1.567,1.309h-1.03v1.211h-0.405v-3.835h1.435
				C236.905,224.446,237.497,224.939,237.497,225.762z M237.091,225.762c0-0.614-0.406-0.965-1.172-0.965H234.9v1.918h1.019
				C236.686,226.715,237.091,226.364,237.091,225.762z"/>
			<path d="M240.44,226.495v1.786h-0.372v-0.449c-0.175,0.296-0.515,0.477-0.992,0.477c-0.652,0-1.052-0.34-1.052-0.838
				c0-0.444,0.285-0.816,1.112-0.816h0.915v-0.175c0-0.493-0.279-0.762-0.816-0.762c-0.372,0-0.723,0.131-0.958,0.34l-0.175-0.291
				c0.291-0.246,0.718-0.389,1.172-0.389C240.019,225.378,240.44,225.75,240.44,226.495z M240.052,227.416v-0.472h-0.904
				c-0.559,0-0.74,0.22-0.74,0.516c0,0.334,0.269,0.542,0.729,0.542C239.575,228.002,239.898,227.794,240.052,227.416z"/>
			<path d="M241.101,227.952l0.175-0.307c0.23,0.181,0.619,0.323,1.024,0.323c0.547,0,0.772-0.186,0.772-0.471
				c0-0.751-1.868-0.159-1.868-1.299c0-0.471,0.405-0.821,1.139-0.821c0.373,0,0.778,0.105,1.019,0.269l-0.17,0.313
				c-0.252-0.176-0.553-0.247-0.849-0.247c-0.52,0-0.75,0.203-0.75,0.477c0,0.778,1.868,0.192,1.868,1.299
				c0,0.498-0.438,0.821-1.189,0.821C241.796,228.309,241.336,228.155,241.101,227.952z"/>
			<path d="M243.781,227.952l0.175-0.307c0.23,0.181,0.619,0.323,1.025,0.323c0.547,0,0.772-0.186,0.772-0.471
				c0-0.751-1.868-0.159-1.868-1.299c0-0.471,0.405-0.821,1.139-0.821c0.373,0,0.778,0.105,1.019,0.269l-0.17,0.313
				c-0.252-0.176-0.553-0.247-0.849-0.247c-0.52,0-0.751,0.203-0.751,0.477c0,0.778,1.868,0.192,1.868,1.299
				c0,0.498-0.439,0.821-1.189,0.821C244.477,228.309,244.017,228.155,243.781,227.952z"/>
			<path d="M251.036,225.399l-1.09,2.882h-0.367l-0.909-2.361l-0.909,2.361h-0.367l-1.084-2.882h0.373l0.904,2.449l0.926-2.449
				h0.334l0.92,2.449l0.915-2.449H251.036z"/>
			<path d="M251.252,226.841c0-0.855,0.625-1.463,1.468-1.463c0.843,0,1.462,0.608,1.462,1.463c0,0.854-0.619,1.468-1.462,1.468
				C251.877,228.309,251.252,227.695,251.252,226.841z M253.789,226.841c0-0.674-0.455-1.123-1.068-1.123
				c-0.614,0-1.074,0.449-1.074,1.123s0.46,1.123,1.074,1.123C253.334,227.964,253.789,227.515,253.789,226.841z"/>
			<path d="M256.432,225.378v0.378c-0.033,0-0.066-0.006-0.093-0.006c-0.603,0-0.97,0.384-0.97,1.064v1.468h-0.389v-2.882h0.372
				v0.564C255.533,225.581,255.9,225.378,256.432,225.378z"/>
			<path d="M259.736,224.217v4.064h-0.372v-0.569c-0.236,0.389-0.636,0.597-1.112,0.597c-0.821,0-1.435-0.597-1.435-1.468
				c0-0.871,0.614-1.463,1.435-1.463c0.46,0,0.855,0.197,1.096,0.569v-1.73H259.736z M259.353,226.841
				c0-0.674-0.46-1.123-1.068-1.123c-0.614,0-1.074,0.449-1.074,1.123s0.46,1.123,1.074,1.123
				C258.893,227.964,259.353,227.515,259.353,226.841z"/>
			<path d="M262.57,225.428c0-0.395-0.323-0.669-0.882-0.669c-0.465,0-0.805,0.153-1.046,0.444l-0.29-0.22
				c0.296-0.361,0.75-0.569,1.364-0.569c0.767,0,1.26,0.367,1.26,0.953c0,0.936-1.003,0.98-1.003,1.764h-0.406
				C261.568,226.227,262.57,226.145,262.57,225.428z M261.486,228.023c0-0.158,0.126-0.279,0.285-0.279
				c0.165,0,0.29,0.121,0.29,0.279c0,0.153-0.126,0.285-0.29,0.285C261.612,228.309,261.486,228.177,261.486,228.023z"/>
		</g>
		<rect x="214.304" y="320.234" style="fill:#407BFF;" width="130.837" height="22.403"/>
		<g>
			<path style="fill:#FFFFFF;" d="M242.831,334.039l0.405-0.854c0.57,0.516,1.545,0.888,2.531,0.888
				c1.326,0,1.895-0.515,1.895-1.183c0-1.874-4.645-0.69-4.645-3.539c0-1.184,0.92-2.191,2.936-2.191c0.898,0,1.83,0.241,2.465,0.68
				l-0.361,0.876c-0.668-0.427-1.424-0.624-2.104-0.624c-1.304,0-1.863,0.548-1.863,1.216c0,1.873,4.645,0.701,4.645,3.517
				c0,1.173-0.942,2.181-2.969,2.181C244.595,335.004,243.444,334.609,242.831,334.039z"/>
			<path style="fill:#FFFFFF;" d="M255.413,332.363h-4.711c0.132,1.018,0.953,1.698,2.104,1.698c0.679,0,1.249-0.23,1.676-0.701
				l0.581,0.679c-0.526,0.614-1.326,0.942-2.29,0.942c-1.874,0-3.123-1.237-3.123-2.969c0-1.72,1.238-2.958,2.915-2.958
				c1.676,0,2.87,1.205,2.87,2.991C255.435,332.133,255.424,332.265,255.413,332.363z M250.702,331.607h3.725
				c-0.109-0.976-0.844-1.665-1.862-1.665C251.557,329.942,250.811,330.621,250.702,331.607z"/>
			<path style="fill:#FFFFFF;" d="M260.161,334.576c-0.317,0.274-0.8,0.405-1.271,0.405c-1.172,0-1.84-0.646-1.84-1.818v-3.188
				h-0.986v-0.865h0.986v-1.271h1.052v1.271h1.665v0.865h-1.665v3.145c0,0.625,0.329,0.976,0.909,0.976
				c0.307,0,0.603-0.099,0.822-0.274L260.161,334.576z"/>
			<path style="fill:#FFFFFF;" d="M270.728,329.92c0,1.666-1.205,2.674-3.199,2.674h-1.895v2.322h-1.096v-7.669h2.991
				C269.522,327.247,270.728,328.255,270.728,329.92z M269.632,329.92c0-1.096-0.734-1.72-2.136-1.72h-1.862v3.44h1.862
				C268.898,331.641,269.632,331.016,269.632,329.92z"/>
			<path style="fill:#FFFFFF;" d="M276.737,331.41v3.506h-0.997v-0.767c-0.35,0.525-0.997,0.832-1.906,0.832
				c-1.315,0-2.147-0.701-2.147-1.709c0-0.931,0.603-1.698,2.333-1.698h1.666v-0.208c0-0.888-0.515-1.402-1.556-1.402
				c-0.69,0-1.391,0.241-1.84,0.625l-0.439-0.789c0.603-0.482,1.468-0.745,2.399-0.745
				C275.838,329.055,276.737,329.821,276.737,331.41z M275.685,333.142v-0.811h-1.622c-1.041,0-1.337,0.405-1.337,0.898
				c0,0.581,0.482,0.942,1.282,0.942C274.797,334.171,275.422,333.81,275.685,333.142z"/>
			<path style="fill:#FFFFFF;" d="M277.957,334.303l0.439-0.833c0.493,0.351,1.282,0.603,2.038,0.603c0.975,0,1.38-0.296,1.38-0.789
				c0-1.304-3.67-0.175-3.67-2.486c0-1.041,0.931-1.742,2.421-1.742c0.756,0,1.61,0.197,2.114,0.525l-0.449,0.833
				c-0.526-0.34-1.107-0.46-1.676-0.46c-0.92,0-1.369,0.34-1.369,0.8c0,1.369,3.681,0.252,3.681,2.509
				c0,1.052-0.964,1.72-2.509,1.72C279.393,334.981,278.44,334.685,277.957,334.303z"/>
			<path style="fill:#FFFFFF;" d="M283.45,334.303l0.438-0.833c0.493,0.351,1.282,0.603,2.038,0.603
				c0.975,0,1.381-0.296,1.381-0.789c0-1.304-3.67-0.175-3.67-2.486c0-1.041,0.931-1.742,2.421-1.742
				c0.756,0,1.61,0.197,2.114,0.525l-0.449,0.833c-0.526-0.34-1.106-0.46-1.676-0.46c-0.92,0-1.37,0.34-1.37,0.8
				c0,1.369,3.682,0.252,3.682,2.509c0,1.052-0.964,1.72-2.509,1.72C284.885,334.981,283.932,334.685,283.45,334.303z"/>
			<path style="fill:#FFFFFF;" d="M298.353,329.109l-2.169,5.807h-1.008l-1.676-4.404l-1.698,4.404h-1.008l-2.158-5.807h0.997
				l1.688,4.623l1.753-4.623h0.887l1.72,4.646l1.731-4.646H298.353z"/>
			<path style="fill:#FFFFFF;" d="M298.721,332.013c0-1.731,1.282-2.958,3.024-2.958c1.742,0,3.013,1.227,3.013,2.958
				c0,1.731-1.271,2.969-3.013,2.969C300.003,334.981,298.721,333.744,298.721,332.013z M303.695,332.013
				c0-1.238-0.833-2.038-1.95-2.038c-1.117,0-1.961,0.8-1.961,2.038c0,1.238,0.844,2.049,1.961,2.049
				C302.863,334.061,303.695,333.251,303.695,332.013z"/>
			<path style="fill:#FFFFFF;" d="M309.343,329.055v1.019c-0.088-0.011-0.165-0.011-0.241-0.011c-1.128,0-1.83,0.69-1.83,1.961
				v2.893h-1.052v-5.807h1.008v0.976C307.601,329.405,308.324,329.055,309.343,329.055z"/>
			<path style="fill:#FFFFFF;" d="M316.061,326.787v8.129h-1.008v-0.92c-0.471,0.657-1.216,0.985-2.07,0.985
				c-1.698,0-2.937-1.194-2.937-2.969c0-1.774,1.238-2.958,2.937-2.958c0.821,0,1.544,0.307,2.027,0.932v-3.199H316.061z
				 M315.021,332.013c0-1.238-0.844-2.038-1.95-2.038c-1.117,0-1.961,0.8-1.961,2.038c0,1.238,0.844,2.049,1.961,2.049
				C314.177,334.061,315.021,333.251,315.021,332.013z"/>
		</g>
		<g style="opacity:0.6;">
			<path style="fill:#263238;" d="M238.409,168.17l-1.811-2.579c-0.168,0.012-0.348,0.024-0.527,0.024h-2.075v2.555h-1.199v-8.395
				h3.274c2.183,0,3.502,1.104,3.502,2.926c0,1.295-0.672,2.231-1.847,2.651l1.991,2.818H238.409z M238.374,162.701
				c0-1.199-0.804-1.883-2.339-1.883h-2.039v3.778h2.039C237.57,164.596,238.374,163.901,238.374,162.701z"/>
			<path style="fill:#263238;" d="M247.074,165.376h-5.157c0.144,1.115,1.044,1.859,2.303,1.859c0.743,0,1.367-0.252,1.835-0.768
				l0.636,0.744c-0.576,0.672-1.452,1.031-2.507,1.031c-2.051,0-3.418-1.355-3.418-3.25c0-1.883,1.355-3.238,3.19-3.238
				c1.835,0,3.143,1.319,3.143,3.274C247.098,165.124,247.085,165.268,247.074,165.376z M241.917,164.548h4.078
				c-0.12-1.067-0.923-1.823-2.039-1.823C242.852,162.726,242.036,163.469,241.917,164.548z"/>
			<path style="fill:#263238;" d="M247.893,167.499l0.48-0.912c0.539,0.384,1.403,0.66,2.231,0.66c1.067,0,1.511-0.324,1.511-0.864
				c0-1.427-4.018-0.192-4.018-2.722c0-1.14,1.02-1.907,2.65-1.907c0.828,0,1.763,0.216,2.315,0.576l-0.492,0.912
				c-0.576-0.372-1.211-0.504-1.835-0.504c-1.007,0-1.5,0.372-1.5,0.875c0,1.5,4.03,0.276,4.03,2.747
				c0,1.151-1.056,1.883-2.747,1.883C249.464,168.242,248.42,167.919,247.893,167.499z"/>
			<path style="fill:#263238;" d="M260.429,165.376h-5.157c0.143,1.115,1.043,1.859,2.303,1.859c0.743,0,1.367-0.252,1.835-0.768
				l0.636,0.744c-0.576,0.672-1.452,1.031-2.507,1.031c-2.051,0-3.418-1.355-3.418-3.25c0-1.883,1.355-3.238,3.19-3.238
				c1.835,0,3.143,1.319,3.143,3.274C260.453,165.124,260.441,165.268,260.429,165.376z M255.272,164.548h4.078
				c-0.12-1.067-0.923-1.823-2.039-1.823C256.207,162.726,255.392,163.469,255.272,164.548z"/>
			<path style="fill:#263238;" d="M265.626,167.799c-0.348,0.3-0.875,0.443-1.391,0.443c-1.284,0-2.015-0.708-2.015-1.991v-3.49
				h-1.08v-0.947h1.08v-1.391h1.151v1.391h1.823v0.947h-1.823v3.442c0,0.684,0.36,1.067,0.996,1.067c0.335,0,0.66-0.108,0.899-0.3
				L265.626,167.799z"/>
			<path style="fill:#263238;" d="M277.192,162.701c0,1.823-1.319,2.927-3.502,2.927h-2.075v2.542h-1.199v-8.395h3.274
				C275.873,159.775,277.192,160.878,277.192,162.701z M275.993,162.701c0-1.199-0.804-1.883-2.339-1.883h-2.039v3.766h2.039
				C275.19,164.585,275.993,163.901,275.993,162.701z"/>
			<path style="fill:#263238;" d="M283.769,164.333v3.838h-1.091v-0.839c-0.384,0.576-1.091,0.911-2.087,0.911
				c-1.439,0-2.351-0.768-2.351-1.871c0-1.02,0.66-1.859,2.555-1.859h1.823v-0.228c0-0.972-0.564-1.535-1.703-1.535
				c-0.756,0-1.523,0.264-2.015,0.684l-0.479-0.864c0.659-0.527,1.607-0.815,2.626-0.815
				C282.786,161.754,283.769,162.593,283.769,164.333z M282.618,166.227v-0.888h-1.775c-1.139,0-1.463,0.444-1.463,0.983
				c0,0.636,0.527,1.032,1.403,1.032C281.647,167.355,282.33,166.959,282.618,166.227z"/>
			<path style="fill:#263238;" d="M285.104,167.499l0.48-0.912c0.539,0.384,1.403,0.66,2.231,0.66c1.067,0,1.511-0.324,1.511-0.864
				c0-1.427-4.018-0.192-4.018-2.722c0-1.14,1.02-1.907,2.65-1.907c0.828,0,1.763,0.216,2.315,0.576l-0.492,0.912
				c-0.576-0.372-1.211-0.504-1.835-0.504c-1.007,0-1.499,0.372-1.499,0.875c0,1.5,4.029,0.276,4.029,2.747
				c0,1.151-1.055,1.883-2.746,1.883C286.675,168.242,285.632,167.919,285.104,167.499z"/>
			<path style="fill:#263238;" d="M291.116,167.499l0.48-0.912c0.54,0.384,1.403,0.66,2.231,0.66c1.067,0,1.511-0.324,1.511-0.864
				c0-1.427-4.018-0.192-4.018-2.722c0-1.14,1.02-1.907,2.65-1.907c0.828,0,1.763,0.216,2.315,0.576l-0.492,0.912
				c-0.576-0.372-1.211-0.504-1.835-0.504c-1.007,0-1.499,0.372-1.499,0.875c0,1.5,4.029,0.276,4.029,2.747
				c0,1.151-1.055,1.883-2.746,1.883C292.687,168.242,291.644,167.919,291.116,167.499z"/>
			<path style="fill:#263238;" d="M307.43,161.814l-2.375,6.356h-1.104l-1.835-4.821l-1.859,4.821h-1.104l-2.363-6.356h1.092
				l1.847,5.061l1.919-5.061h0.972l1.883,5.085l1.895-5.085H307.43z"/>
			<path style="fill:#263238;" d="M307.832,164.992c0-1.895,1.403-3.238,3.31-3.238c1.907,0,3.298,1.343,3.298,3.238
				s-1.392,3.25-3.298,3.25C309.235,168.242,307.832,166.887,307.832,164.992z M313.277,164.992c0-1.355-0.912-2.231-2.135-2.231
				c-1.224,0-2.147,0.876-2.147,2.231s0.923,2.243,2.147,2.243C312.365,167.235,313.277,166.348,313.277,164.992z"/>
			<path style="fill:#263238;" d="M319.457,161.754v1.115c-0.096-0.012-0.18-0.012-0.264-0.012c-1.235,0-2.003,0.755-2.003,2.146
				v3.166h-1.151v-6.356h1.103v1.067C317.551,162.138,318.342,161.754,319.457,161.754z"/>
			<path style="fill:#263238;" d="M326.812,159.271v8.899h-1.103v-1.007c-0.516,0.72-1.332,1.079-2.267,1.079
				c-1.859,0-3.214-1.307-3.214-3.25s1.355-3.238,3.214-3.238c0.9,0,1.691,0.336,2.219,1.02v-3.502H326.812z M325.673,164.992
				c0-1.355-0.923-2.231-2.135-2.231c-1.223,0-2.147,0.876-2.147,2.231s0.924,2.243,2.147,2.243
				C324.75,167.235,325.673,166.348,325.673,164.992z"/>
		</g>
		<g>
			<rect x="214.304" y="244.165" style="fill:#FFFFFF;" width="130.837" height="22.403"/>
			<g style="opacity:0.4;">
				<path style="fill:#263238;" d="M226.829,251.713v6.42h-0.56l-4.126-5.209v5.209h-0.679v-6.42h0.559l4.136,5.209v-5.209H226.829z
					"/>
				<path style="fill:#263238;" d="M232.983,255.923h-4.035c0.074,1.009,0.844,1.678,1.898,1.678c0.587,0,1.11-0.211,1.477-0.633
					l0.367,0.422c-0.431,0.514-1.101,0.789-1.861,0.789c-1.504,0-2.531-1.027-2.531-2.458c0-1.431,0.999-2.448,2.357-2.448
					c1.357,0,2.338,0.999,2.338,2.448C232.992,255.775,232.983,255.849,232.983,255.923z M228.948,255.436h3.421
					c-0.083-0.944-0.771-1.604-1.715-1.604C229.718,253.832,229.03,254.492,228.948,255.436z"/>
				<path style="fill:#263238;" d="M241.31,253.309l-1.825,4.824h-0.614l-1.522-3.953l-1.522,3.953h-0.614l-1.816-4.824h0.624
					l1.513,4.1l1.55-4.1h0.56l1.54,4.1l1.532-4.1H241.31z"/>
				<path style="fill:#263238;" d="M249.858,253.914c0,1.366-0.99,2.191-2.622,2.191h-1.724v2.027h-0.679v-6.42h2.403
					C248.868,251.713,249.858,252.538,249.858,253.914z M249.179,253.914c0-1.027-0.678-1.614-1.962-1.614h-1.706v3.21h1.706
					C248.501,255.51,249.179,254.923,249.179,253.914z"/>
				<path style="fill:#263238;" d="M254.783,255.143v2.99h-0.624v-0.752c-0.293,0.495-0.862,0.798-1.66,0.798
					c-1.091,0-1.761-0.569-1.761-1.403c0-0.743,0.477-1.366,1.862-1.366h1.531v-0.294c0-0.825-0.468-1.274-1.366-1.274
					c-0.624,0-1.211,0.22-1.605,0.568l-0.293-0.486c0.486-0.412,1.201-0.65,1.962-0.65
					C254.077,253.273,254.783,253.895,254.783,255.143z M254.132,256.684v-0.789h-1.513c-0.936,0-1.238,0.367-1.238,0.862
					c0,0.56,0.449,0.908,1.22,0.908C253.334,257.665,253.875,257.316,254.132,256.684z"/>
				<path style="fill:#263238;" d="M255.883,257.582l0.293-0.514c0.385,0.303,1.037,0.541,1.715,0.541
					c0.918,0,1.293-0.311,1.293-0.788c0-1.257-3.128-0.266-3.128-2.174c0-0.788,0.679-1.375,1.908-1.375
					c0.624,0,1.302,0.174,1.706,0.449l-0.284,0.522c-0.422-0.293-0.926-0.412-1.421-0.412c-0.872,0-1.256,0.339-1.256,0.798
					c0,1.302,3.127,0.32,3.127,2.173c0,0.835-0.733,1.376-1.99,1.376C257.048,258.179,256.278,257.922,255.883,257.582z"/>
				<path style="fill:#263238;" d="M260.368,257.582l0.293-0.514c0.385,0.303,1.037,0.541,1.715,0.541
					c0.917,0,1.293-0.311,1.293-0.788c0-1.257-3.127-0.266-3.127-2.174c0-0.788,0.679-1.375,1.908-1.375
					c0.624,0,1.302,0.174,1.706,0.449l-0.284,0.522c-0.422-0.293-0.926-0.412-1.421-0.412c-0.872,0-1.256,0.339-1.256,0.798
					c0,1.302,3.127,0.32,3.127,2.173c0,0.835-0.733,1.376-1.99,1.376C261.533,258.179,260.763,257.922,260.368,257.582z"/>
				<path style="fill:#263238;" d="M272.51,253.309l-1.825,4.824h-0.614l-1.522-3.953l-1.522,3.953h-0.614l-1.816-4.824h0.624
					l1.513,4.1l1.55-4.1h0.56l1.541,4.1l1.532-4.1H272.51z"/>
				<path style="fill:#263238;" d="M272.869,255.721c0-1.431,1.045-2.448,2.457-2.448c1.413,0,2.449,1.017,2.449,2.448
					c0,1.431-1.036,2.458-2.449,2.458C273.914,258.179,272.869,257.151,272.869,255.721z M277.115,255.721
					c0-1.128-0.761-1.88-1.788-1.88c-1.027,0-1.797,0.752-1.797,1.88s0.77,1.88,1.797,1.88
					C276.353,257.601,277.115,256.849,277.115,255.721z"/>
				<path style="fill:#263238;" d="M281.535,253.273v0.633c-0.055,0-0.11-0.01-0.156-0.01c-1.009,0-1.623,0.643-1.623,1.779v2.458
					h-0.651v-4.824h0.623v0.945C280.031,253.611,280.646,253.273,281.535,253.273z"/>
				<path style="fill:#263238;" d="M287.065,251.328v6.805h-0.624v-0.954c-0.394,0.651-1.064,1-1.861,1
					c-1.376,0-2.403-1-2.403-2.458s1.027-2.448,2.403-2.448c0.77,0,1.431,0.33,1.834,0.953v-2.898H287.065z M286.423,255.721
					c0-1.128-0.771-1.88-1.789-1.88c-1.027,0-1.797,0.752-1.797,1.88s0.771,1.88,1.797,1.88
					C285.653,257.601,286.423,256.849,286.423,255.721z"/>
			</g>
		</g>
		<g>
			<rect x="214.304" y="193.549" style="fill:#FFFFFF;" width="130.837" height="22.403"/>
			<g style="opacity:0.4;">
				<path style="fill:#263238;" d="M220.896,204.307c0-1.871,1.43-3.265,3.374-3.265c1.926,0,3.366,1.385,3.366,3.265
					c0,1.88-1.44,3.265-3.366,3.265C222.326,207.572,220.896,206.178,220.896,204.307z M226.958,204.307
					c0-1.532-1.146-2.66-2.687-2.66c-1.55,0-2.705,1.128-2.705,2.66c0,1.531,1.155,2.659,2.705,2.659
					C225.811,206.966,226.958,205.838,226.958,204.307z"/>
				<path style="fill:#263238;" d="M229.021,200.712h0.651v6.805h-0.651V200.712z"/>
				<path style="fill:#263238;" d="M235.89,200.712v6.805h-0.624v-0.954c-0.394,0.651-1.064,0.999-1.861,0.999
					c-1.376,0-2.403-0.999-2.403-2.458c0-1.458,1.027-2.449,2.403-2.449c0.77,0,1.431,0.33,1.834,0.954v-2.898H235.89z
					 M235.249,205.105c0-1.128-0.771-1.88-1.788-1.88c-1.027,0-1.797,0.752-1.797,1.88c0,1.128,0.771,1.88,1.797,1.88
					C234.478,206.985,235.249,206.233,235.249,205.105z"/>
				<path style="fill:#263238;" d="M245.272,203.298c0,1.366-0.99,2.191-2.623,2.191h-1.724v2.027h-0.679v-6.419h2.403
					C244.282,201.097,245.272,201.922,245.272,203.298z M244.593,203.298c0-1.027-0.678-1.614-1.962-1.614h-1.706v3.21h1.706
					C243.915,204.894,244.593,204.307,244.593,203.298z"/>
				<path style="fill:#263238;" d="M250.197,204.527v2.99h-0.624v-0.752c-0.293,0.495-0.862,0.798-1.66,0.798
					c-1.091,0-1.761-0.569-1.761-1.403c0-0.743,0.477-1.366,1.862-1.366h1.531v-0.294c0-0.825-0.468-1.275-1.366-1.275
					c-0.624,0-1.211,0.22-1.605,0.569l-0.294-0.486c0.486-0.413,1.201-0.651,1.962-0.651
					C249.491,202.656,250.197,203.28,250.197,204.527z M249.546,206.068v-0.789h-1.513c-0.936,0-1.238,0.367-1.238,0.862
					c0,0.559,0.449,0.908,1.22,0.908C248.748,207.049,249.289,206.7,249.546,206.068z"/>
				<path style="fill:#263238;" d="M251.298,206.966l0.293-0.514c0.385,0.303,1.037,0.541,1.715,0.541
					c0.917,0,1.293-0.312,1.293-0.789c0-1.256-3.127-0.266-3.127-2.173c0-0.788,0.679-1.375,1.908-1.375
					c0.624,0,1.302,0.174,1.706,0.449l-0.284,0.523c-0.422-0.293-0.926-0.413-1.421-0.413c-0.872,0-1.256,0.339-1.256,0.798
					c0,1.302,3.127,0.321,3.127,2.173c0,0.835-0.733,1.376-1.99,1.376C252.463,207.563,251.692,207.306,251.298,206.966z"/>
				<path style="fill:#263238;" d="M255.783,206.966l0.294-0.514c0.385,0.303,1.037,0.541,1.715,0.541
					c0.918,0,1.294-0.312,1.294-0.789c0-1.256-3.128-0.266-3.128-2.173c0-0.788,0.679-1.375,1.908-1.375
					c0.624,0,1.302,0.174,1.706,0.449l-0.284,0.523c-0.422-0.293-0.926-0.413-1.421-0.413c-0.871,0-1.256,0.339-1.256,0.798
					c0,1.302,3.127,0.321,3.127,2.173c0,0.835-0.733,1.376-1.99,1.376C256.948,207.563,256.177,207.306,255.783,206.966z"/>
				<path style="fill:#263238;" d="M267.924,202.693l-1.825,4.824h-0.614l-1.523-3.953l-1.522,3.953h-0.614l-1.816-4.824h0.623
					l1.513,4.099l1.55-4.099h0.559l1.541,4.099l1.532-4.099H267.924z"/>
				<path style="fill:#263238;" d="M268.283,205.105c0-1.431,1.045-2.449,2.457-2.449c1.413,0,2.449,1.018,2.449,2.449
					c0,1.43-1.036,2.458-2.449,2.458C269.329,207.563,268.283,206.535,268.283,205.105z M272.529,205.105
					c0-1.128-0.761-1.88-1.789-1.88c-1.027,0-1.797,0.752-1.797,1.88c0,1.128,0.771,1.88,1.797,1.88
					C271.768,206.985,272.529,206.233,272.529,205.105z"/>
				<path style="fill:#263238;" d="M276.949,202.656v0.633c-0.055,0-0.11-0.009-0.156-0.009c-1.009,0-1.623,0.642-1.623,1.779v2.458
					h-0.651v-4.824h0.624v0.945C275.445,202.996,276.06,202.656,276.949,202.656z"/>
				<path style="fill:#263238;" d="M282.479,200.712v6.805h-0.624v-0.954c-0.394,0.651-1.063,0.999-1.861,0.999
					c-1.376,0-2.403-0.999-2.403-2.458c0-1.458,1.027-2.449,2.403-2.449c0.77,0,1.43,0.33,1.834,0.954v-2.898H282.479z
					 M281.838,205.105c0-1.128-0.77-1.88-1.789-1.88c-1.027,0-1.797,0.752-1.797,1.88c0,1.128,0.77,1.88,1.797,1.88
					C281.067,206.985,281.838,206.233,281.838,205.105z"/>
			</g>
		</g>
	</g>
</g>
<g id="Plant">
	<g>
		<path style="fill:#407BFF;" d="M398.558,376.189c0,0-6.176,0.822-8.814,0c-2.637-0.822-1.654-12.8-4.348-13.048
			c-6.201-0.57-5.146,15.339-2.509,18.691c2.637,3.352,16.23,1.926,16.23,1.926L398.558,376.189z"/>
		<path style="opacity:0.2;fill:#FFFFFF;enable-background:new    ;" d="M398.558,376.189c0,0-6.176,0.822-8.814,0
			c-2.637-0.822-1.654-12.8-4.348-13.048c-6.201-0.57-5.146,15.339-2.509,18.691c2.637,3.352,16.23,1.926,16.23,1.926
			L398.558,376.189z"/>
		<path style="fill:#407BFF;" d="M399.071,404.404c0,0-9.15-81.242,1.773-82.177s13.557,27.714,9.339,81.145L399.071,404.404z"/>
		<path style="opacity:0.3;fill:#FFFFFF;enable-background:new    ;" d="M399.071,404.404c0,0-9.15-81.242,1.773-82.177
			s13.557,27.714,9.339,81.145L399.071,404.404z"/>
		<g>
			<polygon style="fill:#263238;" points="386.244,394.566 422.171,394.566 419.171,417.553 389.244,417.553 			"/>
		</g>
		<path style="fill:#407BFF;" d="M409.92,348.86c0,0,9.955,0.531,10.252,0c0.297-0.531,0.297-12.029,4.517-11.349
			c4.22,0.679,2.374,14.52,0,16.13c-2.374,1.609-14.769,2.48-14.769,2.48S408.259,351.017,409.92,348.86z"/>
		<path style="opacity:0.4;fill:#FFFFFF;enable-background:new    ;" d="M409.92,348.86c0,0,9.955,0.531,10.252,0
			c0.297-0.531,0.297-12.029,4.517-11.349c4.22,0.679,2.374,14.52,0,16.13c-2.374,1.609-14.769,2.48-14.769,2.48
			S408.259,351.017,409.92,348.86z"/>
		<g>
			<path style="fill:#407BFF;" d="M403.611,396.986c-1.371-12.379-2.521-24.785-3.339-37.218
				c-0.419-6.216-0.714-12.441-0.827-18.677c-0.048-3.118-0.05-6.239,0.105-9.363c0.08-1.562,0.198-3.125,0.439-4.687
				c0.127-0.781,0.271-1.562,0.533-2.339c0.149-0.387,0.284-0.779,0.574-1.152c0.059-0.095,0.143-0.185,0.245-0.269
				c0.091-0.087,0.188-0.171,0.343-0.228c0.071-0.03,0.141-0.06,0.214-0.081c0.085-0.005,0.173-0.005,0.259,0.001
				c0.186-0.005,0.302,0.093,0.443,0.162c0.452,0.341,0.611,0.743,0.793,1.118c0.162,0.382,0.289,0.765,0.4,1.149
				c0.215,0.768,0.387,1.539,0.528,2.312c0.288,1.545,0.491,3.096,0.672,4.648c0.352,3.104,0.593,6.213,0.797,9.324
				c0.392,6.222,0.656,12.447,0.802,18.675c0.155,6.227,0.248,12.455,0.294,18.683c0.02,6.228,0.003,12.456-0.065,18.683
				c-0.059-6.227-0.17-12.453-0.317-18.678c-0.125-6.225-0.284-12.449-0.512-18.67c-0.241-6.22-0.483-12.44-0.911-18.646
				c-0.215-3.102-0.467-6.202-0.829-9.285c-0.185-1.54-0.392-3.078-0.681-4.593c-0.14-0.758-0.311-1.508-0.519-2.237
				c-0.106-0.363-0.227-0.72-0.37-1.053c-0.141-0.322-0.336-0.653-0.512-0.78c-0.036-0.005-0.074-0.064-0.093-0.037
				c-0.01,0.002-0.02-0.002-0.032-0.011c-0.017,0.01-0.035,0.024-0.054,0.032c-0.036,0.001-0.086,0.045-0.135,0.095
				c-0.051,0.038-0.102,0.087-0.145,0.16c-0.196,0.241-0.331,0.595-0.459,0.931c-0.24,0.698-0.384,1.453-0.509,2.207
				c-0.24,1.515-0.363,3.06-0.448,4.607c-0.166,3.095-0.176,6.205-0.139,9.313c0.078,6.218,0.389,12.435,0.715,18.651
				c0.341,6.215,0.768,12.426,1.238,18.634C402.558,384.576,403.052,390.783,403.611,396.986z"/>
		</g>
		<g>
			<path style="fill:#407BFF;" d="M411.173,351.589l5.784-0.444c0.959-0.093,1.92-0.16,2.866-0.288
				c0.471-0.063,0.945-0.124,1.39-0.229c0.214-0.052,0.445-0.117,0.582-0.192c0.002-0.008,0.071-0.046,0.027-0.016
				c-0.018,0.018-0.005,0.023-0.026,0.063c-0.023,0.034-0.008,0.12,0.003,0.118c-0.021-0.151-0.055-0.338-0.049-0.462
				c0.106-2.03,0.506-3.891,0.917-5.798c0.439-1.887,0.861-3.786,1.563-5.603c-0.206,0.946-0.361,1.899-0.506,2.856l-0.466,2.859
				l-0.43,2.859c-0.131,0.944-0.282,1.919-0.297,2.818c-0.006,0.117,0.017,0.169,0.014,0.259c0.013,0.058,0.023,0.204-0.001,0.299
				c-0.022,0.101-0.07,0.146-0.116,0.215c-0.107,0.136-0.165,0.138-0.255,0.207c-0.293,0.15-0.537,0.2-0.791,0.263
				c-0.499,0.107-0.986,0.171-1.475,0.218c-0.977,0.086-1.946,0.146-2.918,0.152C415.046,351.776,413.108,351.742,411.173,351.589z"
				/>
		</g>
		<g>
			<path style="fill:#407BFF;" d="M411.173,354.244c2.174-0.366,4.354-0.664,6.529-0.976l3.259-0.463
				c1.055-0.168,2.228-0.324,3.124-0.618c0.035-0.011,0.208-0.218,0.288-0.445c0.099-0.224,0.177-0.475,0.249-0.728
				c0.14-0.51,0.243-1.043,0.333-1.577c0.186-1.07,0.287-2.16,0.426-3.246c0.242-2.178,0.416-4.37,0.626-6.564
				c0.114,2.203,0.09,4.408-0.028,6.614c-0.045,1.105-0.168,2.204-0.323,3.307c-0.082,0.551-0.174,1.103-0.314,1.657
				c-0.073,0.277-0.151,0.555-0.268,0.837c-0.127,0.271-0.221,0.593-0.67,0.856c-0.631,0.226-1.141,0.276-1.702,0.379l-1.645,0.231
				c-1.096,0.135-2.189,0.276-3.288,0.354C415.575,354.051,413.378,354.198,411.173,354.244z"/>
		</g>
		<g>
			<path style="fill:#407BFF;" d="M395.483,378.412c-1.836,0.095-3.674,0.057-5.514-0.114c-0.924-0.088-1.836-0.201-2.772-0.502
				c-0.122-0.049-0.225-0.068-0.364-0.143c-0.16-0.085-0.28-0.19-0.373-0.302c-0.195-0.222-0.309-0.453-0.417-0.682
				c-0.202-0.458-0.323-0.918-0.433-1.377c-0.39-1.841-0.506-3.682-0.542-5.522c-0.03-1.839,0.011-3.676,0.192-5.506
				c0.144,1.832,0.253,3.657,0.408,5.475c0.174,1.812,0.316,3.64,0.703,5.38c0.208,0.821,0.413,1.848,1.077,1.985
				c0.795,0.303,1.713,0.434,2.598,0.602C391.84,377.996,393.661,378.185,395.483,378.412z"/>
		</g>
		<g>
			<path style="fill:#407BFF;" d="M383.418,365.711l0.649,6.391c0.23,2.122,0.408,4.258,0.813,6.329
				c0.092,0.517,0.199,1.033,0.353,1.507c0.078,0.217,0.182,0.479,0.274,0.57l0.247,0.176c0.1,0.053,0.218,0.098,0.326,0.149
				c0.92,0.378,2.001,0.516,3.035,0.708c2.1,0.322,4.233,0.516,6.367,0.731c-2.145,0.109-4.294,0.066-6.444-0.135
				c-1.079-0.107-2.146-0.25-3.227-0.646c-0.136-0.059-0.271-0.108-0.407-0.178c-0.138-0.092-0.276-0.185-0.409-0.286
				c-0.283-0.302-0.348-0.568-0.467-0.842c-0.188-0.54-0.311-1.074-0.415-1.609c-0.352-2.146-0.539-4.283-0.643-6.429
				C383.375,370.002,383.335,367.857,383.418,365.711z"/>
		</g>
	</g>
</g>
<g id="Padlock">
	<g>
		<g>
			<path style="fill:#263238;" d="M360.968,139.568c6.476-11.306,20.942-15.234,32.248-8.758l-0.966,1.686l6.699-1.819l-1.819-6.699
				l-0.966,1.686c-14.143-8.102-32.241-3.186-40.343,10.957c-6.276,10.956-4.903,24.694,3.417,34.184l4.46-3.909
				C357.048,159.307,355.951,148.326,360.968,139.568z"/>
			<path style="fill:#263238;" d="M404.025,132.195l-4.524,3.835c6.408,7.561,7.402,18.423,2.472,27.028
				c-6.476,11.306-20.942,15.234-32.248,8.758l0.966-1.686l-6.699,1.819l1.819,6.699l0.966-1.685
				c14.143,8.102,32.241,3.186,40.343-10.957C413.286,155.242,412.042,141.654,404.025,132.195z"/>
		</g>
		<g style="opacity:0.6;enable-background:new    ;">
			<path style="fill:#FFFFFF;" d="M360.968,139.568c6.476-11.306,20.942-15.234,32.248-8.758l-0.966,1.686l6.699-1.819l-1.819-6.699
				l-0.966,1.686c-14.143-8.102-32.241-3.186-40.343,10.957c-6.276,10.956-4.903,24.694,3.417,34.184l4.46-3.909
				C357.048,159.307,355.951,148.326,360.968,139.568z"/>
			<path style="fill:#FFFFFF;" d="M404.025,132.195l-4.524,3.835c6.408,7.561,7.402,18.423,2.472,27.028
				c-6.476,11.306-20.942,15.234-32.248,8.758l0.966-1.686l-6.699,1.819l1.819,6.699l0.966-1.685
				c14.143,8.102,32.241,3.186,40.343-10.957C413.286,155.242,412.042,141.654,404.025,132.195z"/>
		</g>
		<g>
			<g>
				<path style="fill:#263238;" d="M377.216,123.29h-6.519v-20.009c0-7.648-6.222-13.87-13.87-13.87
					c-7.648,0-13.87,6.223-13.87,13.87v20.009h-6.519v-20.009c0-11.243,9.146-20.39,20.389-20.39
					c11.243,0,20.389,9.146,20.389,20.39V123.29z"/>
			</g>
			<g style="opacity:0.3;">
				<path style="fill:#FFFFFF;" d="M377.216,123.29h-6.519v-20.009c0-7.648-6.222-13.87-13.87-13.87
					c-7.648,0-13.87,6.223-13.87,13.87v20.009h-6.519v-20.009c0-11.243,9.146-20.39,20.389-20.39
					c11.243,0,20.389,9.146,20.389,20.39V123.29z"/>
			</g>
			<path style="fill:#407BFF;" d="M384.687,118.199v32.73c0,2.1-1.7,3.8-3.8,3.8h-48.14c-2.08,0-3.78-1.7-3.78-3.8v-32.73
				c0-2.1,1.7-3.8,3.78-3.8h48.14c0.65,0,1.27,0.16,1.8,0.46C383.877,115.489,384.687,116.749,384.687,118.199z"/>
			<path style="opacity:0.2;fill:#FFFFFF;enable-background:new    ;" d="M382.687,114.859v32.07c0,2.1-1.7,3.79-3.8,3.79h-48.14
				c-0.64,0-1.25-0.16-1.78-0.45v-32.07c0-2.1,1.7-3.8,3.78-3.8h48.14C381.538,114.399,382.158,114.559,382.687,114.859z"/>
			<path style="opacity:0.5;" d="M363.996,130.455c0-4.035-3.209-7.306-7.169-7.306c-3.96,0-7.169,3.271-7.169,7.306
				c0,3.137,1.951,5.79,4.675,6.825l-0.374,8.698h5.736l-0.856-8.545C361.812,136.543,363.996,133.773,363.996,130.455z"/>
		</g>
	</g>
</g>
<g id="Speech_bubble">
	<g>
		<polygon style="fill:#407BFF;" points="127.369,139.575 130.687,150.235 134.005,139.575 		"/>
		<path style="fill:#407BFF;" d="M157.831,142.823h-54.289c-4.745,0-8.592-3.847-8.592-8.592v-11.564
			c0-4.745,3.847-8.592,8.592-8.592h54.289c4.745,0,8.592,3.847,8.592,8.592v11.564
			C166.423,138.976,162.577,142.823,157.831,142.823z"/>
		<g>
			<path style="fill:#FFFFFF;" d="M111.752,128.436l1.881,1.06l-0.49,0.869l-1.913-1.122l0.016,2.15h-0.948l0.016-2.15l-1.913,1.122
				l-0.49-0.869l1.897-1.06l-1.897-1.043l0.49-0.885l1.913,1.122l-0.016-2.134h0.948l-0.016,2.134l1.913-1.122l0.49,0.885
				L111.752,128.436z"/>
			<path style="fill:#FFFFFF;" d="M118.39,128.436l1.881,1.06l-0.49,0.869l-1.912-1.122l0.016,2.15h-0.948l0.016-2.15l-1.913,1.122
				l-0.49-0.869l1.897-1.06l-1.897-1.043l0.49-0.885l1.913,1.122l-0.016-2.134h0.948l-0.016,2.134l1.912-1.122l0.49,0.885
				L118.39,128.436z"/>
			<path style="fill:#FFFFFF;" d="M125.029,128.436l1.881,1.06l-0.49,0.869l-1.913-1.122l0.016,2.15h-0.948l0.016-2.15l-1.913,1.122
				l-0.49-0.869l1.897-1.06l-1.897-1.043l0.49-0.885l1.913,1.122l-0.016-2.134h0.948l-0.016,2.134l1.913-1.122l0.49,0.885
				L125.029,128.436z"/>
			<path style="fill:#FFFFFF;" d="M131.667,128.436l1.881,1.06l-0.49,0.869l-1.913-1.122l0.016,2.15h-0.948l0.016-2.15l-1.913,1.122
				l-0.49-0.869l1.897-1.06l-1.897-1.043l0.49-0.885l1.913,1.122l-0.016-2.134h0.948l-0.016,2.134l1.913-1.122l0.49,0.885
				L131.667,128.436z"/>
			<path style="fill:#FFFFFF;" d="M138.306,128.436l1.881,1.06l-0.49,0.869l-1.913-1.122l0.016,2.15h-0.948l0.016-2.15l-1.913,1.122
				l-0.49-0.869l1.897-1.06l-1.897-1.043l0.49-0.885l1.913,1.122l-0.016-2.134h0.948l-0.016,2.134l1.913-1.122l0.49,0.885
				L138.306,128.436z"/>
			<path style="fill:#FFFFFF;" d="M144.944,128.436l1.881,1.06l-0.49,0.869l-1.913-1.122l0.016,2.15h-0.948l0.016-2.15l-1.913,1.122
				l-0.49-0.869l1.897-1.06l-1.897-1.043l0.49-0.885l1.913,1.122l-0.016-2.134h0.948l-0.016,2.134l1.913-1.122l0.49,0.885
				L144.944,128.436z"/>
			<path style="fill:#FFFFFF;" d="M151.583,128.436l1.881,1.06l-0.49,0.869l-1.913-1.122l0.016,2.15h-0.948l0.016-2.15l-1.913,1.122
				l-0.49-0.869l1.897-1.06l-1.897-1.043l0.49-0.885l1.913,1.122l-0.016-2.134h0.948l-0.016,2.134l1.913-1.122l0.49,0.885
				L151.583,128.436z"/>
		</g>
	</g>
</g>
<g id="Character">
	<g>
		<g>
			<path style="fill:#B55B52;" d="M174.072,214.066l6.101-3.948l-6.869-4.216c0,0-5.231,3.851-3.134,6.462L174.072,214.066z"/>
			<polygon style="fill:#B55B52;" points="183.3,203.635 176.163,202.015 173.304,205.902 180.173,210.118 			"/>
		</g>
		<g>
			<path style="fill:#B55B52;" d="M148.948,201.245c1.92,3.083,3.982,6.289,6.067,9.285c1.036,1.512,2.119,2.973,3.203,4.345
				c1.065,1.356,2.253,2.657,3.198,3.46c0.225,0.191,0.429,0.338,0.528,0.409c0.096,0.077,0.051,0.024-0.336,0.017
				c-0.201,0.046-0.095,0.149,0.309-0.014c0.809-0.323,2.045-1.441,3.111-2.682c1.091-1.264,2.136-2.72,3.134-4.225
				c0.488-0.758,0.989-1.525,1.449-2.293l0.619-1.073c0.015-0.02,0.034-0.055,0.034-0.027c0.011-0.023-0.017,0.096-0.018,0.154
				c-0.01,0.061-0.03,0.239-0.027,0.355l0.008,0.195c0.091,0.09-0.225-0.176,0.395,1.198c0.728,1.351,2.742,1.257,2.732,1.128
				c0.241-0.052,0.499-0.148,0.734-0.287c0.236-0.138,0.445-0.315,0.607-0.5l0.099-0.121c0.049-0.065,0.094-0.134,0.134-0.205
				l0.012-0.032c0.011-0.03,0.006-0.032-0.006-0.018c-0.014,0.006-0.041,0.04-0.068,0.072c-0.109,0.139-0.236,0.331-0.358,0.517
				l-4.409-1.882c0.068-0.256,0.134-0.506,0.231-0.801c0.026-0.076,0.05-0.15,0.092-0.251c0.015-0.04,0.039-0.096,0.08-0.177
				l0.056-0.11c0.057-0.096,0.119-0.189,0.185-0.279c0.044-0.055-0.029,0.027,0.113-0.139c0.168-0.189,0.383-0.372,0.624-0.514
				c0.241-0.143,0.504-0.245,0.751-0.302c-0.004-0.133,2.014-0.214,2.746,1.141c0.626,1.379,0.309,1.121,0.399,1.218l0.007,0.218
				c0.001,0.131-0.019,0.324-0.031,0.4l-0.058,0.33l-0.068,0.32c-0.141,0.634-0.265,1.108-0.406,1.627
				c-0.278,1.01-0.58,1.994-0.944,2.963c-0.712,1.944-1.568,3.85-2.691,5.738c-1.16,1.877-2.436,3.798-4.911,5.523
				c-1.229,0.835-3.02,1.619-5.158,1.557c-1.351-0.072-2.322-0.45-3.088-0.794c-0.763-0.358-1.37-0.736-1.922-1.113
				c-2.142-1.509-3.581-3.065-5.022-4.623c-1.413-1.56-2.667-3.165-3.889-4.771c-2.414-3.254-4.556-6.51-6.592-10.034
				L148.948,201.245z"/>
		</g>
		<path style="fill:#407BFF;" d="M145.917,196.859c3.967,1.325,12.118,19.75,12.118,19.75l-13.784,6.545c0,0-2.805-14.48-2.29-19.12
			C142.478,199.393,145.917,196.859,145.917,196.859z"/>
		<path style="opacity:0.7;fill:#FFFFFF;" d="M145.917,196.859c3.967,1.325,12.118,19.75,12.118,19.75l-13.784,6.545
			c0,0-2.805-14.48-2.29-19.12C142.478,199.393,145.917,196.859,145.917,196.859z"/>
		<polygon style="fill:#B55B52;" points="162.12,410.53 155.099,412.517 153.428,401.591 152.528,395.748 159.549,393.76 
			160.745,401.591 		"/>
		<polygon style="fill:#B55B52;" points="121.757,411.104 114.52,412.063 114.451,401.591 114.401,395.085 121.649,394.136 
			121.698,401.591 		"/>
		<polygon style="opacity:0.2;" points="121.649,394.136 121.698,401.591 114.451,401.591 114.401,395.085 		"/>
		<polygon style="opacity:0.2;" points="160.745,401.591 153.428,401.591 152.528,395.748 159.549,393.76 		"/>
		<g>
			<path style="fill:#263238;" d="M162.034,409.435l-7.973-0.215c-0.298-0.008-0.564,0.191-0.639,0.479l-1.675,6.42
				c-0.174,0.666,0.314,1.314,1.004,1.321c2.878,0.029,7.04-0.027,10.654,0.07c4.227,0.114,6.914-0.094,11.871,0.04
				c2.997,0.081,3.938-2.913,2.693-3.22c-5.666-1.397-9.37-1.121-14.197-4.283C163.247,409.705,162.664,409.452,162.034,409.435z"/>
			<path style="fill:#407BFF;" d="M162.607,410.316c-0.008-0.073,0.032-0.143,0.098-0.174c0.338-0.161,3.323-1.572,4.195-1.048
				c0.168,0.1,0.26,0.261,0.269,0.466c0.013,0.344-0.105,0.623-0.354,0.829c-0.826,0.684-2.908,0.341-4.075,0.076
				c-0.008-0.002-0.015-0.004-0.023-0.007C162.656,410.435,162.613,410.381,162.607,410.316z M163.325,410.236
				c1.602,0.31,2.806,0.273,3.27-0.111c0.163-0.135,0.238-0.314,0.228-0.548c-0.004-0.091-0.034-0.146-0.102-0.187
				c-0.019-0.011-0.039-0.021-0.062-0.029C166.115,409.156,164.502,409.717,163.325,410.236z"/>
			<path style="fill:#407BFF;" d="M162.673,410.434c-0.049-0.037-0.074-0.097-0.066-0.158c0.011-0.083,0.278-2.035,1.234-2.769
				c0.292-0.224,0.618-0.314,0.97-0.269c0.473,0.062,0.602,0.304,0.627,0.499c0.104,0.825-1.698,2.349-2.593,2.719
				c-0.042,0.017-0.087,0.017-0.128,0.002C162.701,410.452,162.686,410.445,162.673,410.434z M164.764,407.58
				c-0.26-0.034-0.493,0.032-0.713,0.199c-0.627,0.482-0.93,1.646-1.044,2.215c0.919-0.514,2.149-1.716,2.087-2.212
				c-0.004-0.031-0.014-0.109-0.155-0.162C164.894,407.603,164.837,407.589,164.764,407.58z"/>
		</g>
		<g>
			<path style="fill:#263238;" d="M121.468,409.435l-7.973-0.215c-0.299-0.008-0.564,0.191-0.639,0.479l-1.675,6.42
				c-0.174,0.666,0.314,1.314,1.004,1.321c2.878,0.029,7.039-0.027,10.654,0.07c4.227,0.114,6.914-0.094,11.871,0.04
				c2.997,0.081,3.938-2.913,2.693-3.22c-5.666-1.397-9.37-1.121-14.197-4.283C122.682,409.705,122.098,409.452,121.468,409.435z"/>
			<path style="fill:#407BFF;" d="M122.041,410.316c-0.008-0.073,0.032-0.143,0.098-0.174c0.338-0.161,3.323-1.572,4.195-1.048
				c0.168,0.1,0.26,0.261,0.269,0.466c0.014,0.344-0.105,0.623-0.354,0.829c-0.826,0.684-2.908,0.341-4.076,0.076
				c-0.008-0.002-0.015-0.004-0.022-0.007C122.091,410.435,122.048,410.381,122.041,410.316z M122.759,410.236
				c1.602,0.31,2.806,0.273,3.27-0.111c0.163-0.135,0.238-0.314,0.228-0.548c-0.004-0.091-0.034-0.146-0.102-0.187
				c-0.019-0.011-0.039-0.021-0.062-0.029C125.549,409.156,123.937,409.717,122.759,410.236z"/>
			<path style="fill:#407BFF;" d="M122.107,410.434c-0.049-0.037-0.074-0.097-0.066-0.158c0.011-0.083,0.278-2.035,1.234-2.769
				c0.292-0.224,0.618-0.314,0.97-0.269c0.473,0.062,0.602,0.304,0.627,0.499c0.104,0.825-1.698,2.349-2.593,2.719
				c-0.042,0.017-0.087,0.017-0.128,0.002C122.135,410.452,122.121,410.445,122.107,410.434z M124.198,407.58
				c-0.26-0.034-0.493,0.032-0.712,0.199c-0.628,0.482-0.93,1.646-1.044,2.215c0.919-0.514,2.149-1.716,2.087-2.212
				c-0.004-0.031-0.014-0.109-0.155-0.162C124.329,407.603,124.272,407.589,124.198,407.58z"/>
		</g>
		<path style="fill:#263238;" d="M106.826,251.965c-3.834,16.627,2.746,147.392,2.746,147.392h12.718l5.437-108.979l20.028,108.979
			l13.592-0.989c-8.885-84.419-16.74-134.82-16.74-134.82l0.018-6.369L106.826,251.965z"/>
		<path style="opacity:0.2;fill:#FFFFFF;" d="M161.348,398.368l-13.596,0.989l-15.761-85.786l-4.262-23.187l-5.438,108.973h-12.716
			c0,0-6.585-130.766-2.749-147.387l37.801,5.211l-0.02,6.368C144.608,263.548,152.459,313.946,161.348,398.368z"/>
		<g>
			<path style="fill:#407BFF;" d="M105.967,195.792c1.425,8.032,2.044,16.138,2.232,23.733c0.134,5.557,0.025,10.838-0.189,15.618
				c-0.499,11.204-1.576,19.685-1.525,22.594c5.591,0.102,26.662,0.481,38.151,0.683c9.104-39.906,1.282-61.562,1.282-61.562
				s-4.113-1.203-8.961-1.915c-0.638-0.098-1.289-0.177-1.951-0.249c-4.283-0.467-11.342-0.437-16.22-0.291
				c-1.026,0.032-2.065,0.09-3.078,0.163C110.553,194.948,105.967,195.792,105.967,195.792z"/>
		</g>
		<g>
			<path style="fill:#B55B52;" d="M136.194,195.965c0,0-2.274,3.294-4.098,3.524c-2.578,0.345-12.016-5.421-12.016-5.421
				c2.183-1.614,3.249-5.116,3.719-8.828c0.406-3.229,0.354-6.609,0.193-9.076l8.811,9.581c-1.165,2.99-1.852,6.204,0.427,8.453
				c0.013,0.011,0.025,0.009,0.025,0.009C133.934,194.896,134.894,195.488,136.194,195.965z"/>
			<path style="opacity:0.2;" d="M133.229,194.2c-3.715-2.028-7.477-5.464-9.431-8.959c0.406-3.229,0.354-6.609,0.193-9.076
				l8.811,9.581C131.637,188.738,130.95,191.951,133.229,194.2z"/>
		</g>
		<g>
			<path style="fill:#263238;" d="M143.034,167.556c0.744,2.779,0.028,8.391-3.723,6.394
				C135.559,171.954,141.754,162.78,143.034,167.556z"/>
			<path style="fill:#B55B52;" d="M123.119,170.406c-0.726,7.028-1.509,11.108,1.425,15.231c4.414,6.201,13.562,4.355,16.381-2.335
				c2.537-6.021,3.298-16.503-3.078-20.338C131.565,159.186,123.845,163.378,123.119,170.406z"/>
			<path style="fill:#263238;" d="M128.225,166.789l0.34-7.873c0,0-8.352-0.985-8.165,3.32c-4.74,2.101-2.859,9.416,3.222,13.226
				c3.535-2.587,3.428-9.189,3.428-9.189C127.412,166.453,127.811,166.623,128.225,166.789z"/>
			<path style="fill:#B55B52;" d="M119.472,175.761c0.259,1.883,1.369,3.464,2.636,4.379c1.905,1.375,3.689-0.137,3.855-2.361
				c0.15-2.002-0.661-5.131-2.908-5.625C120.841,171.666,119.175,173.607,119.472,175.761z"/>
			<path style="fill:#263238;" d="M133.388,174.002c-0.094,0.567,0.131,1.073,0.503,1.131c0.372,0.058,0.749-0.355,0.843-0.922
				c0.094-0.567-0.131-1.073-0.503-1.131C133.859,173.022,133.482,173.435,133.388,174.002z"/>
			<path style="fill:#263238;" d="M139.815,175.002c-0.094,0.567,0.131,1.073,0.503,1.131c0.372,0.058,0.749-0.355,0.843-0.922
				c0.094-0.567-0.131-1.073-0.503-1.131C140.286,174.023,139.909,174.436,139.815,175.002z"/>
			<path style="fill:#A02724;" d="M137.725,174.966c0,0,0.803,3.355,1.986,5.106c-1.139,0.731-2.778,0.035-2.778,0.035
				L137.725,174.966z"/>
			<path style="fill:#263238;" d="M133.526,181.802c0.228,0.068,0.472,0.124,0.732,0.164c0.092,0.014,0.179-0.049,0.195-0.14
				c0.016-0.092-0.049-0.178-0.139-0.192c-2.497-0.392-3.373-2.308-3.381-2.327c-0.037-0.085-0.138-0.122-0.223-0.085
				c-0.086,0.038-0.125,0.138-0.087,0.223C130.657,179.521,131.412,181.174,133.526,181.802z"/>
			<path style="fill:#263238;" d="M131.749,171.624c0.113,0.034,0.241,0.007,0.333-0.081c1.095-1.044,2.311-0.781,2.323-0.779
				c0.182,0.041,0.365-0.072,0.408-0.253c0.043-0.181-0.07-0.362-0.251-0.403c-0.064-0.015-1.588-0.345-2.946,0.951
				c-0.136,0.129-0.141,0.342-0.013,0.476C131.645,171.578,131.695,171.608,131.749,171.624z"/>
			<path style="fill:#263238;" d="M142.949,173.23c0.062,0.018,0.129,0.019,0.195-0.001c0.179-0.055,0.281-0.243,0.228-0.421
				c-0.533-1.785-2.024-2.22-2.089-2.248c-0.179-0.051-0.368,0.052-0.421,0.231c-0.053,0.178,0.048,0.364,0.225,0.416
				c0.063,0.016,1.207,0.365,1.635,1.798C142.757,173.117,142.845,173.199,142.949,173.23z"/>
			<path style="fill:#263238;" d="M120.4,162.236c0,0-4.322-4.287,10.343-3.895c14.665,0.392,17.1,8.606,10.381,10.515l-0.309-1.337
				c0,0-3.453,2.025-7.521,0.38l1.063-0.66C134.358,167.24,124.354,168.265,120.4,162.236z"/>
		</g>
		<g>
			<g>
				<path style="fill:#407BFF;" d="M132.101,199.493c0,0-1.868,2.159-4.048,4.291c-3.112-1.575-10.396-5.785-10.035-9.673
					c0.43-1.132,3.39-1.847,3.39-1.847S124.633,196.452,132.101,199.493z"/>
			</g>
			<g>
				<path style="fill:#407BFF;" d="M132.101,199.493c0,0,2.432,1.889,4.01,4.289c2.292-1.482,1.135-8.718,0.295-9.518
					c-1.813-1.091-3.942-1.033-3.942-1.033S134.091,196.523,132.101,199.493z"/>
			</g>
			<g style="opacity:0.5;">
				<g>
					<path style="fill:#FFFFFF;" d="M132.101,199.493c0,0-1.868,2.159-4.048,4.291c-3.112-1.575-10.396-5.785-10.035-9.673
						c0.43-1.132,3.39-1.847,3.39-1.847S124.633,196.452,132.101,199.493z"/>
				</g>
				<g>
					<path style="fill:#FFFFFF;" d="M132.101,199.493c0,0,2.432,1.889,4.01,4.289c2.292-1.482,1.135-8.718,0.295-9.518
						c-1.813-1.091-3.942-1.033-3.942-1.033S134.091,196.523,132.101,199.493z"/>
				</g>
			</g>
		</g>
		<path style="opacity:0.2;" d="M131.992,313.57l-4.262-23.187l0.821-12.271C128.551,278.113,134.394,299.391,131.992,313.57z"/>
		<g>
			<path style="fill:#B55B52;" d="M109.963,206.385l-6.556,10.692c-1.088,1.777-2.148,3.568-3.18,5.338
				c-1.025,1.767-2.026,3.571-2.835,5.238c-0.404,0.832-0.695,1.538-0.958,2.342c-0.261,0.878-0.532,1.822-0.775,2.798
				c-0.478,1.958-0.928,3.998-1.364,6.04c-0.877,4.089-1.747,8.254-2.705,12.381l-4.775-0.423c-0.173-4.333-0.133-8.619,0.123-12.95
				c0.139-2.167,0.296-4.333,0.593-6.553c0.149-1.112,0.309-2.249,0.559-3.433c0.267-1.254,0.684-2.555,1.124-3.673
				c0.857-2.243,1.823-4.21,2.809-6.184c0.975-1.975,2.024-3.872,3.072-5.768c2.125-3.78,4.334-7.432,6.721-11.065L109.963,206.385z
				"/>
		</g>
		<path style="fill:#407BFF;" d="M105.967,195.792c-5.366,1.385-14.944,20.688-14.944,20.688l11.406,7.39l10.294-9.988
			c0,0,1.034-4.784-0.656-10.847C110.376,196.971,105.967,195.792,105.967,195.792z"/>
		<path style="opacity:0.7;fill:#FFFFFF;" d="M105.967,195.792c-5.366,1.385-14.944,20.688-14.944,20.688l11.406,7.39l10.294-9.988
			c0,0,1.034-4.784-0.656-10.847C110.376,196.971,105.967,195.792,105.967,195.792z"/>
		<g>
			<path style="fill:#263238;" d="M198.13,179.534l-79.268,84.062l-8.812-8.31l79.268-84.062c1.794-1.903,4.791-1.991,6.694-0.197
				l1.922,1.812C199.836,174.634,199.924,177.631,198.13,179.534z"/>
			<path style="opacity:0.6;fill:#FFFFFF;enable-background:new    ;" d="M198.13,179.534l-79.268,84.062l-8.812-8.31l79.268-84.062
				c1.794-1.903,4.791-1.991,6.694-0.197l1.922,1.812C199.836,174.634,199.924,177.631,198.13,179.534z"/>
			<path style="opacity:0.2;" d="M196.603,171.591l1.326,1.251c1.903,1.795,1.997,4.79,0.203,6.693l-79.269,84.064l-1.326-1.251
				l79.27-84.064C198.601,176.381,198.506,173.386,196.603,171.591z"/>
			<polygon style="fill:#263238;" points="171.309,204.144 186,217.997 187.913,215.968 186.011,214.175 189.033,210.969 
				187.919,209.918 192.456,205.107 193.571,206.158 196.405,203.153 198.307,204.946 200.285,202.847 199.171,201.796 
				202.015,198.779 199.786,196.676 201.641,194.709 204.986,197.863 208.387,194.256 193.696,180.403 			"/>
			<polygon style="opacity:0.6;fill:#FFFFFF;enable-background:new    ;" points="171.309,204.144 186,217.997 187.913,215.968 
				186.011,214.175 189.033,210.969 187.919,209.918 192.456,205.107 193.571,206.158 196.405,203.153 198.307,204.946 
				200.285,202.847 199.171,201.796 202.015,198.779 199.786,196.676 201.641,194.709 204.986,197.863 208.387,194.256 
				193.696,180.403 			"/>
			<g style="opacity:0.2;">
				
					<rect x="184.905" y="215.448" transform="matrix(0.686 -0.7276 0.7276 0.686 -98.9262 203.4675)" style="opacity:0.6;enable-background:new    ;" width="2.78" height="1.823"/>
				<polygon style="opacity:0.6;enable-background:new    ;" points="193.575,206.156 192.461,205.105 187.921,209.919 
					189.035,210.97 186.009,214.179 184.683,212.929 187.709,209.719 186.595,208.669 191.135,203.855 192.249,204.905 
					195.081,201.901 196.408,203.152 				"/>
				<polygon style="opacity:0.6;enable-background:new    ;" points="197.84,200.544 200.685,197.526 202.018,198.783 
					199.173,201.8 200.287,202.851 198.311,204.946 196.984,203.696 198.96,201.6 				"/>
				
					<rect x="198.695" y="194.154" transform="matrix(0.6861 -0.7275 0.7275 0.6861 -79.116 206.7835)" style="opacity:0.6;enable-background:new    ;" width="2.707" height="1.823"/>
				
					<rect x="203.547" y="194.524" transform="matrix(0.686 -0.7276 0.7276 0.686 -77.5075 211.257)" style="opacity:0.6;enable-background:new    ;" width="4.958" height="1.823"/>
			</g>
			<path style="fill:#263238;" d="M197.57,181.68l-24.3,25.77c-0.402,0.426-1.072,0.445-1.498,0.044l-8.82-8.317
				c-0.426-0.402-0.445-1.072-0.044-1.498l24.3-25.77c0.402-0.426,1.072-0.445,1.498-0.044l8.82,8.317
				C197.952,180.583,197.971,181.254,197.57,181.68z"/>
			<g>
				<path style="fill:#263238;" d="M119.322,290.773L119.322,290.773c-7.758,8.227-20.716,8.607-28.943,0.849l-6.638-6.259
					c-8.227-7.758-8.607-20.716-0.849-28.943l0,0c7.758-8.227,20.716-8.607,28.943-0.85l6.638,6.259
					C126.7,269.587,127.08,282.546,119.322,290.773z"/>
				<path style="fill:#FFFFFF;" d="M111.688,283.574L111.688,283.574c-3.861,4.095-10.311,4.284-14.406,0.423l-6.333-5.972
					c-4.095-3.861-4.284-10.311-0.423-14.406l0,0c3.861-4.095,10.311-4.284,14.406-0.423l6.333,5.971
					C115.36,273.029,115.549,279.479,111.688,283.574z"/>
			</g>
			<path style="opacity:0.5;fill:#FFFFFF;enable-background:new    ;" d="M197.57,181.68l-24.3,25.77
				c-0.402,0.426-1.072,0.445-1.498,0.044l-8.82-8.317c-0.426-0.402-0.445-1.072-0.044-1.498l24.3-25.77
				c0.402-0.426,1.072-0.445,1.498-0.044l8.82,8.317C197.952,180.583,197.971,181.254,197.57,181.68z"/>
			<g style="opacity:0.5;enable-background:new    ;">
				<path style="fill:#FFFFFF;" d="M119.322,290.773L119.322,290.773c-7.758,8.227-20.716,8.607-28.943,0.849l-6.638-6.259
					c-8.227-7.758-8.607-20.716-0.849-28.943l0,0c7.758-8.227,20.716-8.607,28.943-0.85l6.638,6.259
					C126.7,269.587,127.08,282.546,119.322,290.773z"/>
				<path style="fill:#FFFFFF;" d="M111.688,283.574L111.688,283.574c-3.861,4.095-10.311,4.284-14.406,0.423l-6.333-5.972
					c-4.095-3.861-4.284-10.311-0.423-14.406l0,0c3.861-4.095,10.311-4.284,14.406-0.423l6.333,5.971
					C115.36,273.029,115.549,279.479,111.688,283.574z"/>
			</g>
			<path style="opacity:0.2;" d="M194.873,177.677l2.652,2.501c0.431,0.406,0.451,1.076,0.044,1.507l-24.299,25.769
				c-0.4,0.424-1.07,0.444-1.501,0.038l-2.652-2.501c0.424,0.4,1.094,0.381,1.495-0.044l24.299-25.769
				C195.317,178.747,195.298,178.077,194.873,177.677z"/>
			<g style="opacity:0.2;">
				<path d="M102.948,261.319l1.989,1.876c-2.049-1.932-4.681-2.848-7.296-2.771c-2.603,0.076-5.182,1.152-7.115,3.201
					c-3.858,4.091-3.675,10.54,0.423,14.404l-1.989-1.876c-4.098-3.864-4.288-10.319-0.429-14.411
					c1.932-2.049,4.512-3.124,7.121-3.194C98.26,258.465,100.898,259.387,102.948,261.319z"/>
				<path d="M116.486,259.954l1.989,1.876c8.223,7.754,8.603,20.715,0.843,28.945c-7.754,8.223-20.715,8.603-28.938,0.849
					l-1.989-1.876c8.223,7.754,21.184,7.373,28.938-0.849C125.09,280.669,124.709,267.708,116.486,259.954z"/>
			</g>
			<g style="opacity:0.2;">
				<path d="M102.948,261.319l1.989,1.876c-2.049-1.932-4.681-2.848-7.296-2.771c-2.603,0.076-5.182,1.152-7.115,3.201
					c-3.858,4.091-3.675,10.54,0.423,14.404l-1.989-1.876c-4.098-3.864-4.288-10.319-0.429-14.411
					c1.932-2.049,4.512-3.124,7.121-3.194C98.26,258.465,100.898,259.387,102.948,261.319z"/>
				<path d="M102.948,261.319l1.989,1.876c-2.049-1.932-4.681-2.848-7.296-2.771c-2.603,0.076-5.182,1.152-7.115,3.201
					c-3.858,4.091-3.675,10.54,0.423,14.404l-1.989-1.876c-4.098-3.864-4.288-10.319-0.429-14.411
					c1.932-2.049,4.512-3.124,7.121-3.194C98.26,258.465,100.898,259.387,102.948,261.319z"/>
			</g>
		</g>
		<g>
			<polygon style="fill:#B55B52;" points="87.785,262.21 95.128,260.372 94.314,255.002 85.348,256.809 			"/>
			<path style="fill:#B55B52;" d="M87.056,249.785l-1.708,7.023l8.967-1.806c0,0,0.121-6.29-3.227-6.701L87.056,249.785z"/>
		</g>
	</g>
</g>
</svg>
